<svg width="22" height="18" viewBox="0 0 22 18" fill="none" xmlns="http://www.w3.org/2000/svg">
<path d="M21.6207 0H0.37931C0.169931 0 0 0.174913 0 0.391304V17.6087C0 17.8251 0.169931 18 0.37931 18H21.6207C21.8301 18 22 17.8251 22 17.6087V0.391304C22 0.174913 21.8301 0 21.6207 0ZM21.2414 17.2174H0.758621V0.782609H21.2414V17.2174Z" fill="#1B5C8E"/>
<path d="M2.11238 4.35835C3.27724 4.35835 4.22476 3.38087 4.22476 2.17956C4.22476 0.977478 3.27724 0 2.11238 0C0.947517 0 -9.26051e-08 0.977478 -9.26051e-08 2.17917C-9.26051e-08 3.38087 0.947517 4.35835 2.11238 4.35835ZM2.11238 0.782609C2.85886 0.782609 3.46614 1.40948 3.46614 2.17917C3.46614 2.94887 2.85886 3.57574 2.11238 3.57574C1.3659 3.57574 0.758621 2.94926 0.758621 2.17956C0.758621 1.40987 1.3659 0.782609 2.11238 0.782609Z" transform="translate(3.9566 4.30435)" fill="#1B5C8E"/>
<path d="M0.379511 8.99972C0.46827 8.99972 0.557787 8.96763 0.629856 8.90229L6.81754 3.28237L10.7252 7.3132C10.8735 7.4662 11.1132 7.4662 11.2615 7.3132C11.4099 7.1602 11.4099 6.91289 11.2615 6.75989L9.4382 4.8789L12.9206 0.94472L17.1921 4.98415C17.3464 5.13011 17.5865 5.11915 17.728 4.95989C17.8695 4.80063 17.8593 4.55294 17.7045 4.40698L13.1528 0.102633C13.0784 0.0325897 12.9794 -0.00223677 12.8797 0.00011106C12.7792 0.00480671 12.6843 0.0505896 12.6164 0.127285L8.90148 4.32481L7.10241 2.46885C6.96055 2.32289 6.73372 2.31546 6.58351 2.45163L0.128787 8.31455C-0.0286268 8.45737 -0.0437993 8.70468 0.094649 8.86707C0.169752 8.95511 0.274442 8.99972 0.379511 8.99972Z" transform="translate(2.27567 6.65245)" fill="#1B5C8E"/>
</svg>
