<svg width="8" height="8" viewBox="0 0 8 8" fill="none" xmlns="http://www.w3.org/2000/svg">
<mask id="path-1-inside-1" fill="white">
<path d="M1.38322 2.63748C1.40775 2.65708 1.43722 2.66668 1.46655 2.66668C1.50335 2.66668 1.54002 2.65148 1.56629 2.62188L3.69962 0.221884C3.74855 0.166951 3.74362 0.0825508 3.68855 0.0337508C3.63335 -0.0153159 3.54922 -0.0102492 3.50029 0.0448175L1.45109 2.35015L0.216553 1.36255C0.15922 1.31655 0.0750866 1.32615 0.0292199 1.38335C-0.0167801 1.44095 -0.00744675 1.52482 0.0500199 1.57082L1.38322 2.63748Z"/>
</mask>
<path id="check" d="M1.38322 2.63748L0.758487 3.41832L0.759043 3.41877L1.38322 2.63748ZM1.56629 2.62188L0.818877 1.95752L0.81832 1.95815L1.56629 2.62188ZM3.69962 0.221884L2.95291 -0.443267L2.95221 -0.44248L3.69962 0.221884ZM3.68855 0.0337508L3.02419 0.781161L3.02531 0.782159L3.68855 0.0337508ZM3.50029 0.0448175L4.24769 0.709184L4.2478 0.709069L3.50029 0.0448175ZM1.45109 2.35015L0.826402 3.13103L1.56775 3.72409L2.19849 3.01452L1.45109 2.35015ZM0.216553 1.36255L-0.409248 2.14253L-0.408131 2.14343L0.216553 1.36255ZM0.0292199 1.38335L-0.75094 0.757768L-0.752178 0.759318L0.0292199 1.38335ZM0.0500199 1.57082L-0.574896 2.35151L-0.574713 2.35166L0.0500199 1.57082ZM0.759043 3.41877C0.933147 3.53728 1.28039 3.65431 1.46655 3.66668V1.66668C1.65589 1.66668 1.84842 1.72919 2.0074 1.8562L0.759043 3.41877ZM1.46655 3.66668C1.77735 3.66668 2.09043 3.53785 2.31425 3.28562L0.81832 1.95815C0.989614 1.76512 1.22936 1.66668 1.46655 1.66668V3.66668ZM2.3137 3.28625L4.44703 0.886248L2.95221 -0.44248L0.818877 1.95752L2.3137 3.28625ZM4.44633 0.887035C4.86285 0.419439 4.82142 -0.298472 4.35179 -0.714657L3.02531 0.782159C2.66582 0.463574 2.63425 -0.0855376 2.95291 -0.443267L4.44633 0.887035ZM4.35292 -0.713659C3.88443 -1.13009 3.1682 -1.08692 2.75278 -0.619434L4.2478 0.709069C3.93024 1.06642 3.38228 1.09946 3.02419 0.78116L4.35292 -0.713659ZM2.75288 -0.619549L0.70368 1.68578L2.19849 3.01452L4.24769 0.709184L2.75288 -0.619549ZM2.07577 1.56927L0.841238 0.581674L-0.408131 2.14343L0.826402 3.13103L2.07577 1.56927ZM0.842354 0.582567C0.35102 0.188357 -0.36203 0.272764 -0.750939 0.757769L0.809379 2.00893C0.512203 2.37954 -0.0325796 2.44474 -0.409247 2.14253L0.842354 0.582567ZM-0.752178 0.759318C-1.14215 1.24763 -1.06368 1.96026 -0.574896 2.35151L0.674936 0.790125C1.04878 1.08938 1.10859 1.63427 0.810618 2.00738L-0.752178 0.759318ZM-0.574713 2.35166L0.758487 3.41832L2.00795 1.85665L0.674753 0.789979L-0.574713 2.35166Z" transform="translate(2.13345 2.66665)" fill="#1B5C8E" mask="url(#path-1-inside-1)"/>
<mask id="path-3-inside-2" fill="white">
<path d="M0 0V8H8V0H0ZM7.73333 7.73333H0.266667V0.266667H7.73333V7.73333Z"/>
</mask>
<path d="M0 0V8H8V0H0ZM7.73333 7.73333H0.266667V0.266667H7.73333V7.73333Z" fill="black"/>
<path d="M0 0V-1H-1V0H0ZM0 8H-1V9H0V8ZM8 8V9H9V8H8ZM8 0H9V-1H8V0ZM7.73333 7.73333V8.73333H8.73333V7.73333H7.73333ZM0.266667 7.73333H-0.733333V8.73333H0.266667V7.73333ZM0.266667 0.266667V-0.733333H-0.733333V0.266667H0.266667ZM7.73333 0.266667H8.73333V-0.733333H7.73333V0.266667ZM-1 0V8H1V0H-1ZM0 9H8V7H0V9ZM9 8V0H7V8H9ZM8 -1H0V1H8V-1ZM7.73333 6.73333H0.266667V8.73333H7.73333V6.73333ZM1.26667 7.73333V0.266667H-0.733333V7.73333H1.26667ZM0.266667 1.26667H7.73333V-0.733333H0.266667V1.26667ZM6.73333 0.266667V7.73333H8.73333V0.266667H6.73333Z" fill="#999999" mask="url(#path-3-inside-2)"/>
</svg>
